# xmcd CD database file
#
# Track frame offsets:
#	150
#	12908
#	32200
#	47050
#	63979
#	80579
#	98691
#	115804
#	129988
#	145438
#	155304
#	170038
#	189189
#	202589
#
# Disc length: 2895 seconds
#
# Revision: 0
# Processed by: cddbd v1.5.1PL2 Copyright (c) Steve Scherf et al.
# Submitted via: Feurio! 1.67 - http://www.feurio.com
#
DISCID=b10b4d0e
DTITLE=Petr Spaleny - Jackpot
DYEAR=2005
DGENRE=Country
TTITLE0=Jackpot
TTITLE1=Baby
TTITLE2=Banana Daiquiri
TTITLE3=Nic krome tvy lasky
TTITLE4=Sen o New Orelans
TTITLE5=Oci ztracenych deti
TTITLE6=Chci se vratit domu
TTITLE7=Kdyby tady byla ta co tu neni
TTITLE8=Album
TTITLE9=Prachy
TTITLE10=Bluesovej Waltz
TTITLE11=Posledni Hippie
TTITLE12=Good bye Mary Lou
TTITLE13=Sedesaty leta
EXTD=
EXTT0=
EXTT1=
EXTT2=
EXTT3=
EXTT4=
EXTT5=
EXTT6=
EXTT7=
EXTT8=
EXTT9=
EXTT10=
EXTT11=
EXTT12=
EXTT13=
PLAYORDER=
